<svg width="20" height="20" viewBox="0 0 20 20" fill="none" xmlns="http://www.w3.org/2000/svg">
<path d="M13.4916 1.66602H6.50829C3.47496 1.66602 1.66663 3.47435 1.66663 6.50768V13.4827C1.66663 16.5244 3.47496 18.3327 6.50829 18.3327H13.4833C16.5166 18.3327 18.325 16.5244 18.325 13.491V6.50768C18.3333 3.47435 16.525 1.66602 13.4916 1.66602ZM13.9833 8.08268L9.25829 12.8077C9.14163 12.9243 8.98329 12.991 8.81663 12.991C8.64996 12.991 8.49163 12.9243 8.37496 12.8077L6.01663 10.4493C5.77496 10.2077 5.77496 9.80768 6.01663 9.56602C6.25829 9.32435 6.65829 9.32435 6.89996 9.56602L8.81663 11.4827L13.1 7.19935C13.3416 6.95768 13.7416 6.95768 13.9833 7.19935C14.225 7.44102 14.225 7.83268 13.9833 8.08268Z" fill="#292D32"/>
</svg>
