<svg width="40" height="40" viewBox="0 0 40 40" fill="none" xmlns="http://www.w3.org/2000/svg">
<g filter="url(#filter0_d_3792_24454)">
<rect x="4" width="32" height="32" rx="6" fill="#EFEFF8"/>
<rect x="4.5" y="0.5" width="31" height="31" rx="5.5" stroke="#BCBFC6"/>
</g>
<path d="M26.7 11.1984C26.3 10.7984 25.7 10.7984 25.3 11.1984L17.8 18.6984L14.7 15.5984C14.3 15.1984 13.7 15.1984 13.3 15.5984C12.9 15.9984 12.9 16.5984 13.3 16.9984L17.1 20.7984C17.3 20.9984 17.5 21.0984 17.8 21.0984C18.1 21.0984 18.3 20.9984 18.5 20.7984L26.7 12.5984C27.1 12.1984 27.1 11.5984 26.7 11.1984Z" fill="#2C3C4B"/>
<defs>
<filter id="filter0_d_3792_24454" x="0" y="0" width="40" height="40" filterUnits="userSpaceOnUse" color-interpolation-filters="sRGB">
<feFlood flood-opacity="0" result="BackgroundImageFix"/>
<feColorMatrix in="SourceAlpha" type="matrix" values="0 0 0 0 0 0 0 0 0 0 0 0 0 0 0 0 0 0 127 0" result="hardAlpha"/>
<feOffset dy="4"/>
<feGaussianBlur stdDeviation="2"/>
<feComposite in2="hardAlpha" operator="out"/>
<feColorMatrix type="matrix" values="0 0 0 0 0 0 0 0 0 0 0 0 0 0 0 0 0 0 0.1 0"/>
<feBlend mode="normal" in2="BackgroundImageFix" result="effect1_dropShadow_3792_24454"/>
<feBlend mode="normal" in="SourceGraphic" in2="effect1_dropShadow_3792_24454" result="shape"/>
</filter>
</defs>
</svg>
